<?xml version="1.0" encoding="utf-8"?>
<!-- Generator: Adobe Illustrator 26.0.2, SVG Export Plug-In . SVG Version: 6.00 Build 0)  -->
<svg version="1.1" id="Layer_1" xmlns="http://www.w3.org/2000/svg" xmlns:xlink="http://www.w3.org/1999/xlink" x="0px" y="0px"
	 viewBox="0 0 691 197" style="enable-background:new 0 0 691 197;" xml:space="preserve">
<style type="text/css">
	.st0{fill:#FFFFFF;}
</style>
<g>
	<path class="st0" d="M104.8,102l-8-0.1V0.6H121c26.1,0,28.3,0.1,34.7,2c10.3,3,18.2,9.5,22.6,18.6c2.1,4.4,2.9,8,3.2,13.5
		c0.5,12.5-4.8,23.4-14.2,29.1c-2.8,1.7-2.9,1.9-2.5,2.6c1.2,2,20.7,35.5,20.7,35.7c0,0.1-7.4,0.2-16.5,0.2h-16.5l-9.6-16.2
		c-5.3-8.9-9.8-16.4-10.1-16.8c-0.3-0.5-1.2-0.7-3.4-0.8l-2.9-0.2l0.2,17l0.2,17l-7-0.1C116,102.1,109.2,102,104.8,102
		C104.8,102,104.8,102,104.8,102z M140.5,45.5c6.8-1.4,10.2-4.7,10.6-9.9c0.3-3.7-0.6-6.2-3-8.5c-3.1-3-7.4-4.1-16.9-4.1l-5,0
		l0.2,3.3c0.1,1.8,0.2,7.1,0.2,11.8v8.5l5.7-0.2C135.5,46.1,139.1,45.8,140.5,45.5z"/>
	<path class="st0" d="M217.7,103.7c-8.9-1-16.8-5-23.2-11.7c-7.2-7.6-11.1-17-11.5-27.8c-0.2-5.8,0.2-9.6,1.6-14
		c5.2-16.5,20-26.3,40.7-27.1c3.5-0.1,6.7,0,8.8,0.2c17.8,2.4,30.9,14.8,34.8,33c0.8,3.8,0.8,12.6,0,16.3c-3.4,15.1-14,25.5-30,29.5
		C232.6,103.6,223.4,104.3,217.7,103.7L217.7,103.7L217.7,103.7z M227.5,91.6c3.5-1,4.9-2.9,4.9-6.5c0-1.2-0.3-2.8-0.6-3.7
		c-1.7-4.4-1.7-4.4-1.3-5.3c0.2-0.5,0.8-1,1.3-1.3c1.2-0.5,1.8-0.1,3.4,2.2c2.2,3.3,6.2,7,8.8,8.2c2.1,1,2.7,1.1,4.8,1
		c2.2-0.1,2.7-0.3,4.5-1.5c2.3-1.6,2.9-2.9,2.9-6c0-3.1-1.7-5.7-4.9-7.8c-2-1.3-6.2-2.5-9.3-2.8c-3.9-0.4-5.3-1-5.8-2.7
		c-0.5-1.6,0-3,1.6-4.1c0.8-0.6,1.8-0.8,4.7-1c2.4-0.1,4.1-0.4,4.8-0.8c5.1-2.7,5.4-11.5,0.6-14.9c-1.4-0.9-1.9-1.1-4-1.1
		c-4.8,0-8.1,3.2-9.6,9.3c-0.1,0.5-0.6,1.3-1.1,1.8c-1,1.1-2.8,1.2-4.5,0.4c-1.6-0.8-1.8-2.7-0.9-8c1.2-6.6,0.5-9.3-2.6-11.2
		c-2-1.2-5.5-1.6-7.6-0.9c-1.8,0.6-4.2,3.1-4.8,4.9c-1.1,3.7-0.2,6.1,3.9,10.4c1.7,1.8,3.2,3.6,3.4,4c0.6,1.9-1.7,4-3.7,3.5
		c-1.2-0.3-2.3-1.4-4.1-4.2c-2.9-4.5-7-5.9-11.1-3.9c-3.5,1.8-4.4,5.8-2.1,9.2c1.3,2,3.7,3.3,7.4,4.1c5.4,1.1,6.9,2.3,5.4,4.2
		c-0.8,1-0.8,1-3.3,0.7c-3.8-0.4-5.2-0.3-7.3,0.8c-2.2,1.1-3.1,2.2-3.7,4.6c-1.2,4.7,2.1,8.9,7.1,8.9c2.6,0,4.6-1.1,7.9-4.3
		c3.6-3.5,4.3-3.9,5.5-3.1c1.3,0.8,1.4,2.1,0.6,4.4c-2,5.2-0.2,10.7,4.1,12.2C224.6,92.3,225.3,92.3,227.5,91.6L227.5,91.6
		L227.5,91.6z M309.7,102.2c-13.5-0.9-20.9-4.6-24.9-12.8c-2.8-5.7-3.5-10.4-3.8-27.3l-0.2-11.4h-1.9c-1,0-2.6-0.1-3.6-0.2l-1.7-0.2
		V25.5h7.6V3.9h29.5v21.6h12.3v25.6h-12.3l0,11.4c0,10.7,0,11.5,0.7,12.6c1.2,2,2.2,2.3,8.6,2.3h5.8v25.2l-6-0.1
		C316.6,102.5,312,102.4,309.7,102.2L309.7,102.2L309.7,102.2z M364.6,101.9c-15.6-1.5-22.8-7.8-25.1-22.2
		c-0.4-2.5-0.7-7.2-0.8-16.1c-0.1-6.9-0.4-12.6-0.5-12.8c-0.2-0.2-1.8-0.4-3.7-0.4l-3.4-0.1V25.1h8l-0.3-10.8l-0.3-10.8h29.6v22
		h12.3v25.2h-12.3l0.1,11.6c0.1,10.5,0.2,11.7,0.8,12.6c1.4,2.1,2.1,2.3,8.4,2.4l5.9,0.1v24.8l-7.8,0
		C371.1,102.2,366.2,102,364.6,101.9L364.6,101.9L364.6,101.9z M424.4,86.4c-12.4-1.6-23.9-7.8-29.6-16c-5.3-7.7-8.1-16.4-8.1-25.8
		c0-13.6,5.9-24.5,17.4-32.2c7.2-4.8,12.7-6.3,23.6-6.7c5.5-0.2,7-0.1,9.9,0.5c5.7,1.2,10.7,3.5,14.9,7c3.7,3.1,7.9,9.2,9.9,14.7
		c2.5,6.5,3.9,17,3,22.4l-0.2,1.4h-26.1c-14.3,0-26.1,0.1-26.1,0.3c0,0.2,0.6,1.3,1.4,2.4c3.3,5.1,8.6,7.7,15.9,7.7
		c5.4,0,10.6-1.4,14.3-4l1.5-1l8.3,7.8c2.9,2.7,5.8,5.5,8.7,8.2c0.8,0.7,0.1,1.7-3.2,4.2c-4.9,4-11,6.7-18.3,8.2
		C437.6,86.5,428.5,86.9,424.4,86.4L424.4,86.4z M439.7,36.2c-0.6-3.7-2.8-6.5-6.5-8.3c-4.1-1.9-9.3-1.7-13.6,0.4
		c-2.9,1.5-5.5,4.9-6.2,8l-0.2,1l3,0.1c1.6,0.1,7.7,0.2,13.4,0.2l10.4,0.1L439.7,36.2L439.7,36.2z M472.2,63.7V24.8h29.2v5.4
		c0,3,0.1,5.4,0.3,5.4c0.1,0,1.1-1,2.1-2.2c3.3-4,8.5-7.7,13.4-9.3c15.2-5.3,31.4,6.6,33.7,24.5c0.2,1.8,0.4,12.8,0.4,28.3v25.3
		h-29.5v-46l-1-1.9c-1.6-3.2-4.7-5-8.6-5c-4.4,0-7.6,2.6-9.3,7.6c-0.7,2.2-0.8,2.9-0.9,24l-0.1,21.7h-29.5L472.2,63.7L472.2,63.7
		L472.2,63.7z M482.7,194.5c-8.8-1.2-17.2-5.1-22.8-10.4c-6.9-6.6-11.1-16.9-11.1-27.6c0-11.2,5.1-21.1,14.7-28.5
		c1.7-1.3,3-2.4,2.9-2.5c-0.1-0.1-2.8,0.1-6.1,0.3s-6.1,0.3-6.2,0.2c-0.4-0.4,1.9-3.4,3.5-4.6c3.2-2.5,7.2-3.4,11-2.5
		c2.9,0.7,2.8,0-0.5-3.6l-2.9-3.2l1.9-1.7c1.1-0.9,2-1.7,2.1-1.7s1.3,1.9,2.8,4.1s2.7,4.2,2.9,4.3c0.2,0.1,0.9-0.7,1.6-1.8
		c3.1-4.7,7.5-6.8,11.7-5.6c2.8,0.8,2.8,0.9,0,4.5c-1.4,1.8-2.5,3.2-2.5,3.2s2.9,0,6.4-0.1c12.4-0.3,20.7,1.6,27.7,6.4
		c2.4,1.6,5.9,5.2,7.7,7.8c1.4,2,5.1,9.6,5.9,12.2c1.9,5.6,2.2,15.5,0.6,21.3c-1.1,4.1-3.9,9.6-6.7,13c-6.3,7.8-16.4,13.5-28,15.8
		C495.7,194.7,486.1,195,482.7,194.5L482.7,194.5L482.7,194.5z M577.5,195.6c-7.8-1-14.9-3.6-21.4-7.8c-7.5-4.9-13.1-14-15.6-25.1
		c-0.8-3.6-1-11-0.5-14.6c1.9-12.7,9.6-23,22.3-29.3c2.4-1.2,4.4-1.9,7.7-2.6c4-0.9,5.1-1,12-1c6.8,0,7.9,0.1,10.6,0.8
		c12.8,3.5,21.6,13.5,24.9,28.5c0.7,3.1,0.8,4.9,0.8,10.1l0,6.3l-26.2,0.2l-26.2,0.2l1.1,1.9c3.1,5.5,8.7,8.3,16.4,8.3
		c5.4,0,11.2-1.7,14.5-4.2l1.2-0.9l8.9,8.4l8.9,8.4l-1.4,1.4C607.5,192.7,591.5,197.3,577.5,195.6L577.5,195.6L577.5,195.6z
		 M592.8,145.8c-0.8-4.9-4.6-8.4-10.2-9.3c-7.3-1.3-14.6,3-16.1,9.5c-0.2,1-0.2,1,2,1.1c1.3,0.1,7.3,0.2,13.4,0.2l11.1,0.1
		L592.8,145.8L592.8,145.8z M648.6,195.9c-4.1-0.5-9.5-1.7-13.1-2.9c-5-1.8-12.7-5.9-12.7-6.8c0-0.3,10.5-18.8,11-19.4
		c0.1-0.1,2.4,1,5.1,2.4c7.5,3.8,10.9,4.9,16.1,4.8c4.2,0,6.9-0.8,8.2-2.2c1.8-2,1-4.9-1.6-5.7c-0.6-0.2-3.7-0.4-6.8-0.3
		c-3.9,0-6.4-0.1-8.2-0.5c-10.2-2.3-18.2-8.9-21.5-17.7c-0.6-1.8-0.8-3-0.8-6.5l0-4.3l1.5-3.2c4.5-9.4,13.2-16.1,23.8-18.3
		c2.9-0.6,4.4-0.7,9.1-0.6c6,0.2,9.6,0.8,15.2,2.7c5.7,1.9,13.5,5.6,13.4,6.3c0,0.2-2.3,4.1-5,8.7c-3.8,6.5-5.1,8.4-5.5,8.2
		c-2-0.9-11.1-3.8-13.5-4.3c-1.6-0.3-4.5-0.6-6.5-0.6c-3.8,0-4.9,0.3-6.4,2.1c-1,1.2-0.8,3.5,0.3,4.6c0.9,0.8,1.2,0.9,6.6,1
		c13.4,0.2,21.8,3.1,27.7,9.6c3.5,3.9,5.4,8.3,5.7,13.7c0.5,7.8-2.2,14.5-8.3,20.2c-4.1,3.9-5.8,4.9-11.2,6.8
		C665.5,195.7,655.4,196.7,648.6,195.9L648.6,195.9L648.6,195.9z M426.6,193.4c-3.1-0.1-8.5-0.9-10.8-1.5
		c-10.8-2.8-16.1-9-18.1-21.5c-0.3-1.7-0.5-6.2-0.7-15.4l-0.3-13l-1.7-0.2c-1.2-0.1-2.4-0.2-3.6-0.2l-2,0v-25.2h7.9l-0.1-9.1
		c-0.1-5-0.2-9.9-0.2-10.8l-0.1-1.7h29.8v21.9h12.2v25.5h-12.2l0,10.9c0,6.8,0.1,11.3,0.3,11.9c0.3,1.2,1.6,2.7,2.7,3.2
		c0.6,0.3,2.3,0.3,6.6,0.3h5.7v25.2l-6.8,0C431.3,193.5,427.5,193.5,426.6,193.4L426.6,193.4z M326.5,195.9
		c-6.1-0.9-12.2-4.3-18-9.9c-3.6-3.5-5.7-6.3-7.7-10.3c-3-6.1-4.2-10.8-4.4-18.1c-0.2-7,0.6-12.3,2.8-18.6
		c2.2-6.5,4.4-10.2,8.4-14.1c8.5-8.5,18.6-11.8,28.3-9.3c5.6,1.4,10.2,4.1,15.1,8.8l2.2,2.1v-9.5h27.8v76.9h-27.8V189
		c0-2.7-0.1-4.8-0.2-4.8c-0.1,0-1.2,1.1-2.5,2.4C343.4,193.7,334.6,197.1,326.5,195.9L326.5,195.9L326.5,195.9z M344.2,167.6
		c5.8-2.8,9.1-11.2,7-17.5c-1.2-3.5-4.3-6.4-8.3-7.8c-3.9-1.3-6.6-1.1-10.1,0.5c-4.5,2.2-7.2,6.6-7.2,11.9c0,3.9,1.3,7,4,9.7
		C333.6,168.5,339.8,169.8,344.2,167.6L344.2,167.6L344.2,167.6z M259.8,188.7c-0.1-3-0.2-11.4-0.2-18.7c0-7.3-0.1-15.4-0.2-18.1
		c-0.2-5.5-0.4-6.3-2.4-8.3c-2.3-2.3-6.3-3.2-9.5-2c-2.7,1-4.8,3.8-5.5,7.2c-0.2,1-0.3,8.6-0.3,23.1v21.6h-14.8
		c-8.1,0-14.8,0-14.8-0.1c0,0-0.1-10.4-0.2-23l-0.1-22.9L211,146c-1-1.8-2.2-3.1-4.2-4.1c-1.2-0.6-1.6-0.7-3.8-0.7
		c-2,0-2.6,0.1-3.5,0.6c-2.4,1.3-4.2,4-5.1,7.7c-0.4,1.8-0.4,3.7-0.4,23.1l0.1,21.2h-29.5l-0.2-23c-0.1-12.6-0.2-30.1-0.2-38.9
		v-15.9h29.3l0.1,3.6c0.1,3.1,0.1,3.6,0.5,3.7c0.2,0,1.3-0.8,2.7-2.2c2.7-2.7,5.1-4.1,9.1-5.5c11.1-3.8,22-1.2,30.2,7.2l2.2,2.3
		l0.7-1.2c3.2-5.5,12.4-9.5,21.8-9.5c7.8,0,14.8,2.7,19.7,7.5c5.1,5,8.2,12.8,8.7,21.9c0.1,1.4,0.2,13.2,0.3,26.3l0.1,23.8H260
		L259.8,188.7L259.8,188.7L259.8,188.7z M106.8,195c-6.1-1-10.5-2.7-15.4-5.9c-11.6-7.7-18.8-22.4-18.1-37.1
		c0.8-18,12.4-31.6,30.6-35.9c8-1.9,17.1-2.2,24.1-0.7c12.2,2.5,22.8,10.9,28.2,22.4c5.3,11.2,5.4,24,0.5,34.8
		c-5.6,12.1-17.1,19.9-33,22.3C119.9,195.3,109.7,195.5,106.8,195L106.8,195L106.8,195z M119.9,167.5c4.4-0.9,8.1-3.7,10.1-7.6
		c1-2,1-2.1,1-4.6c0-3-0.5-5.2-1.5-7.4c-3.7-7.5-12.8-10.4-20.6-6.6c-3.8,1.9-7.1,6.2-7.8,10.4c-1.1,6.5,3.8,14.3,10.3,16.2
		C112.8,168.2,117.3,168,119.9,167.5L119.9,167.5z"/>
	<path class="st0" d="M27.6,157.2v-36.7H0.8V91.9l40.4,0.2c22.2,0.1,40.5,0.2,40.6,0.3c0.1,0.1,0.2,6.4,0.2,14v13.9h-26v73.6H27.6
		L27.6,157.2L27.6,157.2L27.6,157.2z"/>
</g>
</svg>
